<svg width="501" height="431" viewBox="0 0 501 431" fill="none" xmlns="http://www.w3.org/2000/svg">
<rect x="0.522461" y="217.865" width="495.785" height="117.55" transform="rotate(-2 0.522461 217.865)" fill="#EBD96B"/>
<path d="M52.112 53.872H72.656V70H30.8V2.032H52.112V53.872ZM100.675 19.024V27.376H121.795V43.408H100.675V53.008H124.675V70H79.3625V2.032H124.675V19.024H100.675ZM186.082 2.032V18.928H168.034V70H146.722V18.928H128.866V2.032H186.082ZM197.431 2.032H218.551L207.223 30.352H193.207L197.431 2.032ZM254.736 70.672C246.608 70.672 239.888 68.784 234.576 65.008C229.328 61.168 226.48 55.568 226.032 48.208H248.688C249.008 52.112 250.736 54.064 253.872 54.064C255.024 54.064 255.984 53.808 256.752 53.296C257.584 52.72 258 51.856 258 50.704C258 49.104 257.136 47.824 255.408 46.864C253.68 45.84 250.992 44.688 247.344 43.408C242.992 41.872 239.376 40.368 236.496 38.896C233.68 37.424 231.248 35.28 229.2 32.464C227.152 29.648 226.16 26.032 226.224 21.616C226.224 17.2 227.344 13.456 229.584 10.384C231.888 7.248 234.992 4.88 238.896 3.27999C242.864 1.68 247.312 0.879997 252.24 0.879997C260.56 0.879997 267.152 2.8 272.016 6.64C276.944 10.48 279.536 15.888 279.792 22.864H256.848C256.784 20.944 256.304 19.568 255.408 18.736C254.512 17.904 253.424 17.488 252.144 17.488C251.248 17.488 250.512 17.808 249.936 18.448C249.36 19.024 249.072 19.856 249.072 20.944C249.072 22.48 249.904 23.76 251.568 24.784C253.296 25.744 256.016 26.928 259.728 28.336C264.016 29.936 267.536 31.472 270.288 32.944C273.104 34.416 275.536 36.464 277.584 39.088C279.632 41.712 280.656 45.008 280.656 48.976C280.656 53.136 279.632 56.88 277.584 60.208C275.536 63.472 272.56 66.032 268.656 67.888C264.752 69.744 260.112 70.672 254.736 70.672ZM52.112 139.024V147.376H73.232V163.408H52.112V173.008H76.112V190H30.8V122.032H76.112V139.024H52.112ZM127.44 190L114.96 172.336L104.592 190H80.3038L102.672 154.96L79.3438 122.032H104.592L116.592 139.024L126.576 122.032H150.864L128.88 156.4L152.688 190H127.44ZM213.04 145.36C213.04 149.648 212.048 153.552 210.064 157.072C208.08 160.528 205.136 163.28 201.232 165.328C197.392 167.376 192.72 168.4 187.216 168.4H178.768V190H157.456V122.032H187.216C195.536 122.032 201.904 124.144 206.32 128.368C210.8 132.592 213.04 138.256 213.04 145.36ZM184.816 151.6C189.232 151.6 191.44 149.52 191.44 145.36C191.44 141.2 189.232 139.12 184.816 139.12H178.768V151.6H184.816ZM241.112 173.872H261.656V190H219.8V122.032H241.112V173.872ZM301.483 190.672C295.083 190.672 289.195 189.168 283.819 186.16C278.507 183.152 274.283 178.992 271.147 173.68C268.011 168.368 266.443 162.384 266.443 155.728C266.443 149.072 268.011 143.088 271.147 137.776C274.283 132.464 278.507 128.336 283.819 125.392C289.195 122.384 295.083 120.88 301.483 120.88C307.883 120.88 313.739 122.384 319.051 125.392C324.363 128.336 328.555 132.464 331.627 137.776C334.763 143.088 336.331 149.072 336.331 155.728C336.331 162.384 334.763 168.368 331.627 173.68C328.555 178.992 324.331 183.152 318.955 186.16C313.643 189.168 307.819 190.672 301.483 190.672ZM301.483 170.8C305.707 170.8 308.971 169.456 311.275 166.768C313.579 164.016 314.731 160.336 314.731 155.728C314.731 151.056 313.579 147.376 311.275 144.688C308.971 141.936 305.707 140.56 301.483 140.56C297.195 140.56 293.899 141.936 291.595 144.688C289.291 147.376 288.139 151.056 288.139 155.728C288.139 160.336 289.291 164.016 291.595 166.768C293.899 169.456 297.195 170.8 301.483 170.8ZM378.195 190L365.427 165.616H365.331V190H344.019V122.032H375.699C381.203 122.032 385.907 123.024 389.811 125.008C393.715 126.928 396.627 129.584 398.547 132.976C400.531 136.304 401.523 140.08 401.523 144.304C401.523 148.848 400.243 152.88 397.683 156.4C395.187 159.92 391.571 162.448 386.835 163.984L401.619 190H378.195ZM365.331 151.408H373.779C375.827 151.408 377.363 150.96 378.387 150.064C379.411 149.104 379.923 147.632 379.923 145.648C379.923 143.856 379.379 142.448 378.291 141.424C377.267 140.4 375.763 139.888 373.779 139.888H365.331V151.408ZM429.643 139.024V147.376H450.763V163.408H429.643V173.008H453.643V190H408.331V122.032H453.643V139.024H429.643ZM51.632 242.032V280.336C51.632 283.472 52.304 285.968 53.648 287.824C55.056 289.616 57.296 290.512 60.368 290.512C63.44 290.512 65.712 289.616 67.184 287.824C68.656 285.968 69.392 283.472 69.392 280.336V242.032H90.608V280.336C90.608 286.8 89.264 292.336 86.576 296.944C83.888 301.488 80.208 304.912 75.536 307.216C70.864 309.52 65.648 310.672 59.888 310.672C54.128 310.672 49.008 309.52 44.528 307.216C40.112 304.912 36.656 301.488 34.16 296.944C31.664 292.4 30.416 286.864 30.416 280.336V242.032H51.632ZM164.984 310H143.672L121.112 275.824V310H99.8V242.032H121.112L143.672 276.784V242.032H164.984V310ZM195.925 242.032V310H174.613V242.032H195.925ZM250.286 321.04L243.758 310.288C242.286 310.544 240.59 310.672 238.67 310.672C232.27 310.672 226.382 309.168 221.006 306.16C215.694 303.152 211.47 298.992 208.334 293.68C205.198 288.368 203.63 282.384 203.63 275.728C203.63 269.072 205.198 263.088 208.334 257.776C211.47 252.464 215.694 248.336 221.006 245.392C226.382 242.384 232.27 240.88 238.67 240.88C245.07 240.88 250.926 242.384 256.238 245.392C261.55 248.336 265.742 252.464 268.814 257.776C271.95 263.088 273.518 269.072 273.518 275.728C273.518 281.168 272.462 286.192 270.35 290.8C268.238 295.344 265.326 299.216 261.614 302.416L275.438 321.04H250.286ZM225.326 275.728C225.326 280.336 226.478 284.016 228.782 286.768C231.086 289.456 234.382 290.8 238.67 290.8C242.894 290.8 246.158 289.456 248.462 286.768C250.766 284.016 251.918 280.336 251.918 275.728C251.918 271.056 250.766 267.376 248.462 264.688C246.158 261.936 242.894 260.56 238.67 260.56C234.382 260.56 231.086 261.936 228.782 264.688C226.478 267.376 225.326 271.056 225.326 275.728ZM302.038 242.032V280.336C302.038 283.472 302.71 285.968 304.054 287.824C305.462 289.616 307.702 290.512 310.774 290.512C313.846 290.512 316.118 289.616 317.59 287.824C319.062 285.968 319.798 283.472 319.798 280.336V242.032H341.014V280.336C341.014 286.8 339.67 292.336 336.982 296.944C334.294 301.488 330.614 304.912 325.942 307.216C321.27 309.52 316.054 310.672 310.294 310.672C304.534 310.672 299.414 309.52 294.934 307.216C290.518 304.912 287.062 301.488 284.566 296.944C282.07 292.4 280.822 286.864 280.822 280.336V242.032H302.038ZM371.518 259.024V267.376H392.638V283.408H371.518V293.008H395.518V310H350.206V242.032H395.518V259.024H371.518ZM28.88 395.92C28.88 389.2 30.224 383.216 32.912 377.968C35.664 372.72 39.568 368.656 44.624 365.776C49.68 362.832 55.632 361.36 62.48 361.36C68.368 361.36 73.616 362.48 78.224 364.72C82.896 366.896 86.672 370 89.552 374.032C92.496 378.064 94.448 382.768 95.408 388.144H72.944C71.92 385.904 70.448 384.176 68.528 382.96C66.672 381.68 64.528 381.04 62.096 381.04C58.512 381.04 55.664 382.384 53.552 385.072C51.504 387.76 50.48 391.376 50.48 395.92C50.48 400.464 51.504 404.08 53.552 406.768C55.664 409.456 58.512 410.8 62.096 410.8C64.528 410.8 66.672 410.192 68.528 408.976C70.448 407.696 71.92 405.936 72.944 403.696H95.408C94.448 409.072 92.496 413.776 89.552 417.808C86.672 421.84 82.896 424.976 78.224 427.216C73.616 429.392 68.368 430.48 62.48 430.48C55.632 430.48 49.68 429.04 44.624 426.16C39.568 423.216 35.664 419.12 32.912 413.872C30.224 408.624 28.88 402.64 28.88 395.92ZM124.393 413.872H144.937V430H103.081V362.032H124.393V413.872ZM184.764 430.672C178.364 430.672 172.476 429.168 167.1 426.16C161.788 423.152 157.564 418.992 154.428 413.68C151.292 408.368 149.724 402.384 149.724 395.728C149.724 389.072 151.292 383.088 154.428 377.776C157.564 372.464 161.788 368.336 167.1 365.392C172.476 362.384 178.364 360.88 184.764 360.88C191.164 360.88 197.02 362.384 202.332 365.392C207.644 368.336 211.836 372.464 214.908 377.776C218.044 383.088 219.612 389.072 219.612 395.728C219.612 402.384 218.044 408.368 214.908 413.68C211.836 418.992 207.612 423.152 202.236 426.16C196.924 429.168 191.1 430.672 184.764 430.672ZM184.764 410.8C188.988 410.8 192.252 409.456 194.556 406.768C196.86 404.016 198.012 400.336 198.012 395.728C198.012 391.056 196.86 387.376 194.556 384.688C192.252 381.936 188.988 380.56 184.764 380.56C180.476 380.56 177.18 381.936 174.876 384.688C172.572 387.376 171.42 391.056 171.42 395.728C171.42 400.336 172.572 404.016 174.876 406.768C177.18 409.456 180.476 410.8 184.764 410.8ZM280.676 362.032V378.928H262.628V430H241.316V378.928H223.46V362.032H280.676ZM349.336 362.032V430H328.024V403.504H307.768V430H286.456V362.032H307.768V386.512H328.024V362.032H349.336ZM380.237 379.024V387.376H401.357V403.408H380.237V413.008H404.237V430H358.925V362.032H404.237V379.024H380.237ZM438.861 430.672C430.733 430.672 424.013 428.784 418.701 425.008C413.453 421.168 410.605 415.568 410.157 408.208H432.813C433.133 412.112 434.861 414.064 437.997 414.064C439.149 414.064 440.109 413.808 440.877 413.296C441.709 412.72 442.125 411.856 442.125 410.704C442.125 409.104 441.261 407.824 439.533 406.864C437.805 405.84 435.117 404.688 431.469 403.408C427.117 401.872 423.501 400.368 420.621 398.896C417.805 397.424 415.373 395.28 413.325 392.464C411.277 389.648 410.285 386.032 410.349 381.616C410.349 377.2 411.469 373.456 413.709 370.384C416.013 367.248 419.117 364.88 423.021 363.28C426.989 361.68 431.437 360.88 436.365 360.88C444.685 360.88 451.277 362.8 456.141 366.64C461.069 370.48 463.661 375.888 463.917 382.864H440.973C440.909 380.944 440.429 379.568 439.533 378.736C438.637 377.904 437.549 377.488 436.269 377.488C435.373 377.488 434.637 377.808 434.061 378.448C433.485 379.024 433.197 379.856 433.197 380.944C433.197 382.48 434.029 383.76 435.693 384.784C437.421 385.744 440.141 386.928 443.853 388.336C448.141 389.936 451.661 391.472 454.413 392.944C457.229 394.416 459.661 396.464 461.709 399.088C463.757 401.712 464.781 405.008 464.781 408.976C464.781 413.136 463.757 416.88 461.709 420.208C459.661 423.472 456.685 426.032 452.781 427.888C448.877 429.744 444.237 430.672 438.861 430.672ZM482.829 430.768C479.117 430.768 476.141 429.776 473.901 427.792C471.661 425.808 470.541 423.312 470.541 420.304C470.541 417.232 471.661 414.704 473.901 412.72C476.141 410.672 479.117 409.648 482.829 409.648C486.477 409.648 489.421 410.672 491.661 412.72C493.901 414.704 495.021 417.232 495.021 420.304C495.021 423.312 493.901 425.808 491.661 427.792C489.421 429.776 486.477 430.768 482.829 430.768Z" fill="black"/>
</svg>
