<svg width="617" height="287" viewBox="0 0 617 287" fill="none" xmlns="http://www.w3.org/2000/svg">
<rect width="541.428" height="130.373" transform="matrix(0.999393 -0.034827 0.0349721 0.999388 0.199707 18.9744)" fill="white"/>
<path d="M93.7018 67.846C93.7018 72.8312 92.5485 77.3699 90.2419 81.4622C87.9354 85.4801 84.5127 88.6796 79.974 91.0605C75.5096 93.4415 70.078 94.632 63.6791 94.632H53.8576V119.744H29.0805V40.7252H63.6791C73.3519 40.7252 80.7552 43.1805 85.8892 48.0913C91.0976 53.0021 93.7018 59.587 93.7018 67.846ZM60.8889 75.1005C66.0229 75.1005 68.5899 72.6824 68.5899 67.846C68.5899 63.0096 66.0229 60.5914 60.8889 60.5914H53.8576V75.1005H60.8889ZM152.231 107.802H125.891L121.985 119.744H95.9802L124.887 40.7252H153.459L182.253 119.744H156.137L152.231 107.802ZM146.204 89.1632L139.061 67.1763L131.918 89.1632H146.204ZM263.776 40.7252L235.428 95.7481V119.744H210.651V95.7481L182.302 40.7252H210.651L223.263 68.7389L235.874 40.7252H263.776ZM302.334 40.7252C310.593 40.7252 317.81 42.3993 323.986 45.7475C330.236 49.0958 335.035 53.7461 338.383 59.6986C341.731 65.651 343.406 72.4219 343.406 80.0113C343.406 87.5263 341.731 94.2972 338.383 100.324C335.035 106.351 330.236 111.113 323.986 114.61C317.81 118.033 310.593 119.744 302.334 119.744H269.409V40.7252H302.334ZM300.101 97.6454C305.682 97.6454 310.109 96.1201 313.383 93.0695C316.657 90.0189 318.294 85.6661 318.294 80.0113C318.294 74.3565 316.657 70.0038 313.383 66.9531C310.109 63.9025 305.682 62.3772 300.101 62.3772H294.186V97.6454H300.101ZM403.023 107.802H376.683L372.777 119.744H346.772L375.679 40.7252H404.25L433.045 119.744H406.929L403.023 107.802ZM396.996 89.1632L389.853 67.1763L382.71 89.1632H396.996ZM514.568 40.7252L486.22 95.7481V119.744H461.443V95.7481L433.094 40.7252H461.443L474.054 68.7389L486.666 40.7252H514.568ZM59.9961 257.525C50.5466 257.525 42.734 255.33 36.5583 250.94C30.457 246.476 27.146 239.965 26.6252 231.409H52.9647C53.3368 235.948 55.3457 238.217 58.9916 238.217C60.3309 238.217 61.447 237.919 62.3398 237.324C63.3071 236.654 63.7908 235.65 63.7908 234.311C63.7908 232.45 62.7863 230.962 60.7773 229.846C58.7684 228.656 55.6433 227.316 51.4022 225.828C46.3426 224.043 42.1387 222.294 38.7905 220.583C35.5166 218.871 32.6892 216.379 30.3082 213.105C27.9273 209.831 26.774 205.627 26.8484 200.493C26.8484 195.359 28.1505 191.007 30.7547 187.435C33.4333 183.789 37.0419 181.036 41.5807 179.176C46.1938 177.316 51.365 176.386 57.0943 176.386C66.767 176.386 74.4308 178.618 80.0856 183.082C85.8148 187.547 88.8282 193.834 89.1259 201.944H62.4515C62.377 199.712 61.819 198.112 60.7773 197.145C59.7356 196.178 58.4708 195.694 56.9826 195.694C55.941 195.694 55.0853 196.066 54.4156 196.81C53.746 197.48 53.4112 198.447 53.4112 199.712C53.4112 201.498 54.3784 202.986 56.313 204.176C58.3219 205.292 61.4842 206.669 65.7997 208.306C70.7849 210.166 74.8772 211.952 78.0766 213.663C81.3505 215.374 84.1779 217.755 86.5589 220.806C88.9398 223.857 90.1303 227.689 90.1303 232.302C90.1303 237.138 88.9398 241.491 86.5589 245.36C84.1779 249.155 80.718 252.131 76.1793 254.289C71.6405 256.446 66.2461 257.525 59.9961 257.525ZM149.506 244.802H123.166L119.26 256.744H93.2554L122.162 177.725H150.734L179.529 256.744H153.412L149.506 244.802ZM143.479 226.163L136.336 204.176L129.193 226.163H143.479ZM209.935 237.994H233.819V256.744H185.158V177.725H209.935V237.994ZM266.393 197.48V207.19H290.947V225.828H266.393V236.989H294.295V256.744H241.616V177.725H294.295V197.48H266.393ZM398.38 256.744H373.603L347.375 217.011V256.744H322.598V177.725H347.375L373.603 218.127V177.725H398.38V256.744ZM448.078 257.525C440.638 257.525 433.793 255.777 427.543 252.28C421.367 248.782 416.456 243.946 412.81 237.77C409.164 231.595 407.341 224.638 407.341 216.9C407.341 209.162 409.164 202.205 412.81 196.029C416.456 189.853 421.367 185.054 427.543 181.631C433.793 178.134 440.638 176.386 448.078 176.386C455.519 176.386 462.327 178.134 468.503 181.631C474.678 185.054 479.552 189.853 483.124 196.029C486.769 202.205 488.592 209.162 488.592 216.9C488.592 224.638 486.769 231.595 483.124 237.77C479.552 243.946 474.641 248.782 468.391 252.28C462.216 255.777 455.445 257.525 448.078 257.525ZM448.078 234.422C452.989 234.422 456.784 232.86 459.463 229.735C462.141 226.535 463.48 222.257 463.48 216.9C463.48 211.468 462.141 207.19 459.463 204.065C456.784 200.865 452.989 199.266 448.078 199.266C443.093 199.266 439.261 200.865 436.583 204.065C433.904 207.19 432.565 211.468 432.565 216.9C432.565 222.257 433.904 226.535 436.583 229.735C439.261 232.86 443.093 234.422 448.078 234.422ZM611.371 177.725L593.291 256.744H562.487L553.335 211.877L544.183 256.744H513.379L495.298 177.725H521.973L529.116 227.502L539.83 177.725H566.839L577.554 227.502L584.697 177.725H611.371Z" fill="black"/>
</svg>
