<svg width="411" height="58" viewBox="0 0 411 58" fill="none" xmlns="http://www.w3.org/2000/svg">
<path d="M309 26.9755C290.333 31.3088 247.4 42.9755 225 54.9755C281.667 60.3088 398.2 62.1755 411 26.9755C393 23.9755 347.4 19.7755 309 26.9755Z" fill="#EBD96B"/>
<path d="M34.992 42H24.336L13.056 24.912V42H2.4V8.016H13.056L24.336 25.392V8.016H34.992V42ZM53.3423 16.512V20.688H63.9023V28.704H53.3423V33.504H65.3423V42H42.6863V8.016H65.3423V16.512H53.3423ZM121.198 8.016L113.422 42H100.174L96.2381 22.704L92.3021 42H79.0541L71.2781 8.016H82.7501L85.8221 29.424L90.4301 8.016H102.046L106.654 29.424L109.726 8.016H121.198ZM160.728 36.864H149.4L147.72 42H136.536L148.968 8.016H161.256L173.64 42H162.408L160.728 36.864ZM158.136 28.848L155.064 19.392L151.992 28.848H158.136ZM196.029 42L189.645 29.808H189.597V42H178.941V8.016H194.781C197.533 8.016 199.885 8.512 201.837 9.504C203.789 10.464 205.245 11.792 206.205 13.488C207.197 15.152 207.693 17.04 207.693 19.152C207.693 21.424 207.053 23.44 205.773 25.2C204.525 26.96 202.717 28.224 200.349 28.992L207.741 42H196.029ZM189.597 22.704H193.821C194.845 22.704 195.613 22.48 196.125 22.032C196.637 21.552 196.893 20.816 196.893 19.824C196.893 18.928 196.621 18.224 196.077 17.712C195.565 17.2 194.813 16.944 193.821 16.944H189.597V22.704ZM231.065 42L224.681 29.808H224.633V42H213.977V8.016H229.817C232.569 8.016 234.921 8.512 236.873 9.504C238.825 10.464 240.281 11.792 241.241 13.488C242.233 15.152 242.729 17.04 242.729 19.152C242.729 21.424 242.089 23.44 240.809 25.2C239.561 26.96 237.753 28.224 235.385 28.992L242.777 42H231.065ZM224.633 22.704H228.857C229.881 22.704 230.649 22.48 231.161 22.032C231.673 21.552 231.929 20.816 231.929 19.824C231.929 18.928 231.657 18.224 231.113 17.712C230.601 17.2 229.849 16.944 228.857 16.944H224.633V22.704ZM259.669 8.016V42H249.013V8.016H259.669ZM301.586 8.016L290.162 42H276.386L264.962 8.016H276.29L283.298 31.392L290.258 8.016H301.586ZM328.643 36.864H317.315L315.635 42H304.451L316.883 8.016H329.171L341.555 42H330.323L328.643 36.864ZM326.051 28.848L322.979 19.392L319.907 28.848H326.051ZM357.512 33.936H367.784V42H346.856V8.016H357.512V33.936ZM387.313 42.336C383.249 42.336 379.889 41.392 377.233 39.504C374.609 37.584 373.185 34.784 372.961 31.104H384.289C384.449 33.056 385.313 34.032 386.881 34.032C387.457 34.032 387.937 33.904 388.321 33.648C388.737 33.36 388.945 32.928 388.945 32.352C388.945 31.552 388.513 30.912 387.649 30.432C386.785 29.92 385.441 29.344 383.617 28.704C381.441 27.936 379.633 27.184 378.193 26.448C376.785 25.712 375.569 24.64 374.545 23.232C373.521 21.824 373.025 20.016 373.057 17.808C373.057 15.6 373.617 13.728 374.737 12.192C375.889 10.624 377.441 9.44 379.393 8.64C381.377 7.84 383.601 7.44 386.065 7.44C390.225 7.44 393.521 8.4 395.953 10.32C398.417 12.24 399.713 14.944 399.841 18.432H388.369C388.337 17.472 388.097 16.784 387.649 16.368C387.201 15.952 386.657 15.744 386.017 15.744C385.569 15.744 385.201 15.904 384.913 16.224C384.625 16.512 384.481 16.928 384.481 17.472C384.481 18.24 384.897 18.88 385.729 19.392C386.593 19.872 387.953 20.464 389.809 21.168C391.953 21.968 393.713 22.736 395.089 23.472C396.497 24.208 397.713 25.232 398.737 26.544C399.761 27.856 400.273 29.504 400.273 31.488C400.273 33.568 399.761 35.44 398.737 37.104C397.713 38.736 396.225 40.016 394.273 40.944C392.321 41.872 390.001 42.336 387.313 42.336Z" fill="black"/>
</svg>
